<?xml version="1.0" standalone="no"?>
<!DOCTYPE svg PUBLIC "-//W3C//DTD SVG 20010904//EN"
 "http://www.w3.org/TR/2001/REC-SVG-20010904/DTD/svg10.dtd">
<svg version="1.0" xmlns="http://www.w3.org/2000/svg"
 width="202.000000pt" height="202.000000pt" viewBox="0 0 202.000000 202.000000"
 preserveAspectRatio="xMidYMid meet">
<metadata>
Created by potrace 1.14, written by Peter Selinger 2001-2017
</metadata>
<g transform="translate(0.000000,202.000000) scale(0.100000,-0.100000)"
fill="#000000" stroke="none">
<path d="M1920 1950 c-25 -11 -153 -58 -285 -106 -273 -98 -308 -111 -425
-154 -47 -18 -121 -44 -165 -60 -202 -71 -363 -133 -400 -155 -60 -35 -132
-117 -165 -188 -21 -44 -36 -107 -55 -222 -29 -183 -33 -267 -12 -316 17 -42
77 -96 115 -105 15 -3 31 -7 35 -8 5 -1 0 -11 -10 -23 -10 -11 -36 -42 -58
-68 -353 -416 -432 -510 -430 -513 3 -3 129 41 370 130 61 22 157 57 215 78
680 245 765 280 820 333 94 91 116 143 151 349 33 195 38 267 20 320 -15 44
-80 106 -121 115 -17 3 -30 9 -30 14 0 5 26 39 58 76 247 289 440 523 430 522
-7 0 -33 -9 -58 -19z"/>
</g>
</svg>
